<svg width="24" height="24" viewBox="0 0 24 24" fill="none" xmlns="http://www.w3.org/2000/svg">
<path d="M14.0597 22H9.94028M18.1792 8.31579C18.1792 6.64074 17.5282 5.03429 16.3693 3.84985C15.2105 2.66541 13.6388 2 12 2C10.3612 2 8.78948 2.66541 7.63066 3.84985C6.47184 5.03429 5.82083 6.64074 5.82083 8.31579C5.82083 11.5686 5.01802 13.7957 4.12121 15.2689C3.36474 16.5114 2.9865 17.1327 3.00037 17.3061C3.01572 17.498 3.0555 17.5712 3.2068 17.6859C3.34345 17.7895 3.95944 17.7895 5.19143 17.7895H18.8086C20.0406 17.7895 20.6565 17.7895 20.7932 17.6859C20.9445 17.5712 20.9843 17.498 20.9996 17.3061C21.0135 17.1327 20.6353 16.5114 19.8788 15.2689C18.982 13.7957 18.1792 11.5686 18.1792 8.31579Z" stroke="#222222" stroke-width="1.5" stroke-linecap="round" stroke-linejoin="round"/>
</svg>
