<svg width="48" height="48" viewBox="0 0 48 48" fill="none" xmlns="http://www.w3.org/2000/svg">
<rect width="48" height="48" fill="white"/>
<path fill-rule="evenodd" clip-rule="evenodd" d="M13.3241 4H34.4184C34.608 4 34.7711 4.06705 34.905 4.19992L38.7686 8.03116C38.9025 8.16414 38.9701 8.32574 38.9701 8.51371V37.1643C38.9701 37.5402 38.6609 37.8468 38.282 37.8468H13.3241C12.9451 37.8468 12.636 37.5402 12.636 37.1643V4.68247C12.636 4.30664 12.9451 4 13.3241 4Z" fill="#D1D1D6"/>
<path fill-rule="evenodd" clip-rule="evenodd" d="M9.718 7.57599H30.8123C31.0019 7.57599 31.165 7.64304 31.299 7.77591L35.1625 11.6071C35.2965 11.74 35.364 11.9017 35.364 12.0897V40.7403C35.364 41.1162 35.0549 41.4228 34.6759 41.4228H9.718C9.33901 41.4228 9.02991 41.1162 9.02991 40.7403V8.25846C9.02991 7.88252 9.33901 7.57599 9.718 7.57599Z" fill="#ECEFF1"/>
<path fill-rule="evenodd" clip-rule="evenodd" d="M13.9874 19.7036C13.4857 19.7036 13.0782 19.2996 13.0782 18.8021C13.0782 18.3044 13.4857 17.9005 13.9874 17.9005H30.4065C30.9082 17.9005 31.3156 18.3044 31.3156 18.8021C31.3156 19.2996 30.9082 19.7036 30.4065 19.7036H13.9874ZM13.9874 15.9054C13.4857 15.9054 13.0782 15.5014 13.0782 15.0039C13.0782 14.5063 13.4857 14.1023 13.9874 14.1023H30.4065C30.9082 14.1023 31.3156 14.5063 31.3156 15.0039C31.3156 15.5014 30.9082 15.9054 30.4065 15.9054H13.9874ZM13.9874 12.1073C13.4857 12.1073 13.0782 11.7033 13.0782 11.2057C13.0782 10.7081 13.4857 10.3042 13.9874 10.3042H26.3802C26.882 10.3042 27.2893 10.7081 27.2893 11.2057C27.2893 11.7033 26.882 12.1073 26.3802 12.1073H13.9874Z" fill="#A79BA7"/>
<path fill-rule="evenodd" clip-rule="evenodd" d="M9.11946 17.261H18.2497C19.5501 17.261 20.6667 17.8997 21.3176 19.0161L23.4074 22.6004H38.8804C40.5986 22.6004 42 23.9902 42 25.6938V40.9066C42 42.6102 40.5985 44.0001 38.8804 44.0001H9.11946C7.40143 44.0001 6 42.6104 6 40.9066V20.3545C6 18.6506 7.40143 17.261 9.11946 17.261Z" fill="#FFE177"/>
<path fill-rule="evenodd" clip-rule="evenodd" d="M6 22.6004V20.3545C6 18.6506 7.40143 17.261 9.11946 17.261H18.2497C19.5501 17.261 20.6667 17.8997 21.3176 19.0161L23.4074 22.6004H6Z" fill="#FFD064"/>
</svg>
