<svg width="48" height="48" viewBox="0 0 48 48" fill="none" xmlns="http://www.w3.org/2000/svg">
<path fill-rule="evenodd" clip-rule="evenodd" d="M32.1571 8.9279C33.7534 9.79074 35.2003 10.9015 36.4448 12.2196L39.9519 11.6689L42.6554 16.3514L40.4249 19.1132C40.9442 20.8503 41.1827 22.6585 41.1317 24.4725L44 26.5605L42.6001 31.7852L39.0719 32.1592C38.2099 33.7533 37.0991 35.2001 35.781 36.4448L36.3317 39.9519L31.6486 42.6574L28.8874 40.4249C27.1503 40.944 25.3413 41.185 23.5275 41.1338L21.4401 44L16.2154 42.5999L15.8414 39.0719C14.2473 38.2099 12.8005 37.0989 11.5558 35.7808L8.04814 36.3337L5.34299 31.6484L7.57512 28.8895C7.05664 27.1503 6.81565 25.3413 6.86622 23.5297L4 21.4424L5.40008 16.2176L8.92586 15.8429C9.7885 14.2466 10.9017 12.8003 12.2198 11.5556L11.6669 8.04814L16.3516 5.34523L19.1111 7.57512C20.8503 7.05644 22.6587 6.81789 24.4703 6.86825L26.5583 4L31.783 5.39987L32.1571 8.9279Z" fill="#837683"/>
<path fill-rule="evenodd" clip-rule="evenodd" d="M11.5558 35.7809L8.04818 36.3338L7.70605 35.7413L11.0019 35.222C11.1807 35.4116 11.3654 35.598 11.5558 35.7809ZM15.7591 5.68745L16.3516 5.34534L19.1112 7.57523C18.8569 7.63904 18.6039 7.70795 18.3535 7.78502L15.7591 5.68745ZM38.7736 11.8542L39.9519 11.669L42.6554 16.3515L40.4249 19.1133C40.9442 20.8504 41.1827 22.6586 41.1318 24.4726L44 26.5606L42.6002 31.7853L39.0719 32.1593C38.2099 33.7534 37.0991 35.2002 35.781 36.4449L36.3317 39.952L31.6487 42.6575L30.7206 41.908L34.8134 39.5452L34.2604 36.0376C35.5786 34.7929 36.6895 33.3461 37.5516 31.7519L41.0796 31.378L42.4797 26.153L39.6112 24.0652C39.6624 22.2513 39.4236 20.4428 38.9045 18.7059L41.1371 15.9447L38.7736 11.8542ZM28.8875 40.425C27.1504 40.9441 25.3413 41.1851 23.5275 41.1339L21.4402 44.0001L19.9198 43.5927L22.0072 40.7265C23.8209 40.7777 26.3891 40.3298 28.1284 39.8111L28.8875 40.425ZM32.1572 8.928C33.7534 9.79084 35.2004 10.9016 36.4449 12.2197L35.4778 12.3735C34.2331 11.0553 32.233 9.38328 30.6366 8.52064L30.2627 4.99261L31.783 5.39998L32.1572 8.928Z" fill="#685E68"/>
<path fill-rule="evenodd" clip-rule="evenodd" d="M27.0059 12.7787C33.204 14.4396 36.8819 20.81 35.2213 27.0081C33.561 33.2041 27.1907 36.882 20.9925 35.2212C14.7965 33.5609 11.1186 27.1906 12.7788 20.9947C14.4397 14.7966 20.8101 11.1187 27.0059 12.7787Z" fill="#ECEFF1"/>
<path fill-rule="evenodd" clip-rule="evenodd" d="M25.0262 35.5749C23.7073 35.692 22.3457 35.5839 20.9925 35.2212C14.7965 33.5609 11.1186 27.1906 12.7788 20.9947C14.2615 15.4613 19.4981 11.9363 25.0128 12.4254C20.292 12.8446 16.1158 16.1496 14.8177 20.9947C13.1574 27.1906 16.8353 33.5609 23.0314 35.2212C23.6963 35.3994 24.3634 35.5162 25.0262 35.5749Z" fill="#D1D1D6"/>
</svg>
