<svg width="48" height="48" viewBox="0 0 48 48" fill="none" xmlns="http://www.w3.org/2000/svg">
<path fill-rule="evenodd" clip-rule="evenodd" d="M40.7743 9.26276C42.5509 9.26276 44 10.7166 44 12.4989V34.8634C44 35.7546 43.6834 36.5217 43.0552 37.1518L38.1707 42.0521C37.5425 42.6823 36.778 43 35.8897 43H7.22584C5.44917 43 4 41.5462 4 39.7637V12.4989C4 10.7165 5.44917 9.26276 7.22584 9.26276H40.7743Z" fill="#ECEFF1"/>
<path fill-rule="evenodd" clip-rule="evenodd" d="M40.7742 9.26276C42.5509 9.26276 44 10.7166 44 12.4989V34.8634C44 35.7546 43.6834 36.5217 43.0552 37.1518H41.4999V12.4989C41.4999 10.7166 40.0508 9.26276 38.2742 9.26276H40.7742Z" fill="#D1D1D6"/>
<path fill-rule="evenodd" clip-rule="evenodd" d="M37.226 37.0129V42.7195C37.5685 42.5626 37.8838 42.3399 38.1708 42.0521L43.0552 37.1518C43.3422 36.864 43.5641 36.5476 43.7205 36.204H38.0324C37.5882 36.204 37.226 36.5674 37.226 37.0129Z" fill="#D1D1D6"/>
<path fill-rule="evenodd" clip-rule="evenodd" d="M41.4999 38.7121L43.0552 37.1518C43.3421 36.864 43.564 36.5476 43.7205 36.204H41.4999V38.7121Z" fill="#B1B1B5"/>
<path fill-rule="evenodd" clip-rule="evenodd" d="M4 16.3253H44V12.4989C44 10.7166 42.5509 9.26276 40.7743 9.26276H7.22584C5.44917 9.26276 4 10.7165 4 12.4989V16.3253Z" fill="#D1D1D6"/>
<path fill-rule="evenodd" clip-rule="evenodd" d="M41.4999 16.3253H44V12.4989C44 10.7166 42.5509 9.26276 40.7742 9.26276H38.2742C40.0508 9.26276 41.4999 10.7166 41.4999 12.4989V16.3253Z" fill="#B1B1B5"/>
<path d="M37.621 21.2416H34.5725C34.1136 21.2416 33.7393 21.6172 33.7393 22.0776V25.136C33.7393 25.5964 34.1136 25.9719 34.5725 25.9719H37.621C38.08 25.9719 38.4543 25.5964 38.4543 25.136V22.0776C38.4543 21.6172 38.08 21.2416 37.621 21.2416Z" fill="#8AC9FE"/>
<path d="M31.5727 21.2416H28.5242C28.0653 21.2416 27.6909 21.6172 27.6909 22.0776V25.136C27.6909 25.5964 28.0653 25.9719 28.5242 25.9719H31.5727C32.0316 25.9719 32.406 25.5964 32.406 25.136V22.0776C32.406 21.6172 32.0316 21.2416 31.5727 21.2416Z" fill="#8AC9FE"/>
<path d="M25.5242 21.2416H22.4757C22.0168 21.2416 21.6425 21.6172 21.6425 22.0776V25.136C21.6425 25.5964 22.0168 25.9719 22.4757 25.9719H25.5242C25.9831 25.9719 26.3576 25.5964 26.3576 25.136V22.0776C26.3576 21.6172 25.9831 21.2416 25.5242 21.2416Z" fill="#8AC9FE"/>
<path d="M19.4759 21.2416H16.4274C15.9684 21.2416 15.5941 21.6172 15.5941 22.0776V25.136C15.5941 25.5964 15.9684 25.9719 16.4274 25.9719H19.4759C19.9348 25.9719 20.3092 25.5964 20.3092 25.136V22.0776C20.3092 21.6172 19.9348 21.2416 19.4759 21.2416Z" fill="#8AC9FE"/>
<path d="M13.4274 21.2416H10.3791C9.92004 21.2416 9.54578 21.6172 9.54578 22.0776V25.136C9.54578 25.5964 9.92004 25.9719 10.3791 25.9719H13.4274C13.8864 25.9719 14.2608 25.5964 14.2608 25.136V22.0776C14.2608 21.6172 13.8864 21.2416 13.4274 21.2416Z" fill="#FE646F"/>
<path d="M37.621 27.3095H34.5725C34.1136 27.3095 33.7393 27.6851 33.7393 28.1455V31.2038C33.7393 31.6642 34.1136 32.0397 34.5725 32.0397H37.621C38.08 32.0397 38.4543 31.6642 38.4543 31.2038V28.1455C38.4543 27.6851 38.08 27.3095 37.621 27.3095Z" fill="#8AC9FE"/>
<path d="M31.5727 27.3095H28.5242C28.0653 27.3095 27.6909 27.6851 27.6909 28.1455V31.2038C27.6909 31.6642 28.0653 32.0397 28.5242 32.0397H31.5727C32.0316 32.0397 32.406 31.6642 32.406 31.2038V28.1455C32.406 27.6851 32.0316 27.3095 31.5727 27.3095Z" fill="#8AC9FE"/>
<path d="M25.5242 27.3095H22.4757C22.0168 27.3095 21.6425 27.6851 21.6425 28.1455V31.2038C21.6425 31.6642 22.0168 32.0397 22.4757 32.0397H25.5242C25.9831 32.0397 26.3576 31.6642 26.3576 31.2038V28.1455C26.3576 27.6851 25.9831 27.3095 25.5242 27.3095Z" fill="#8AC9FE"/>
<path d="M19.4759 27.3095H16.4274C15.9684 27.3095 15.5941 27.6851 15.5941 28.1455V31.2038C15.5941 31.6642 15.9684 32.0397 16.4274 32.0397H19.4759C19.9348 32.0397 20.3092 31.6642 20.3092 31.2038V28.1455C20.3092 27.6851 19.9348 27.3095 19.4759 27.3095Z" fill="#8AC9FE"/>
<path d="M13.4274 27.3095H10.3791C9.92004 27.3095 9.54578 27.6851 9.54578 28.1455V31.2038C9.54578 31.6642 9.92004 32.0397 10.3791 32.0397H13.4274C13.8864 32.0397 14.2608 31.6642 14.2608 31.2038V28.1455C14.2608 27.6851 13.8864 27.3095 13.4274 27.3095Z" fill="#FE646F"/>
<path d="M31.5727 33.3774H28.5242C28.0653 33.3774 27.6909 33.753 27.6909 34.2135V37.2716C27.6909 37.7321 28.0653 38.1077 28.5242 38.1077H31.5727C32.0316 38.1077 32.406 37.7321 32.406 37.2716V34.2135C32.406 33.753 32.0316 33.3774 31.5727 33.3774Z" fill="#8AC9FE"/>
<path d="M25.5242 33.3774H22.4757C22.0168 33.3774 21.6425 33.753 21.6425 34.2135V37.2716C21.6425 37.7321 22.0168 38.1077 22.4757 38.1077H25.5242C25.9831 38.1077 26.3576 37.7321 26.3576 37.2716V34.2135C26.3576 33.753 25.9831 33.3774 25.5242 33.3774Z" fill="#8AC9FE"/>
<path d="M19.4759 33.3774H16.4274C15.9684 33.3774 15.5941 33.753 15.5941 34.2135V37.2716C15.5941 37.7321 15.9684 38.1077 16.4274 38.1077H19.4759C19.9348 38.1077 20.3092 37.7321 20.3092 37.2716V34.2135C20.3092 33.753 19.9348 33.3774 19.4759 33.3774Z" fill="#8AC9FE"/>
<path d="M13.4274 33.3774H10.3791C9.92004 33.3774 9.54578 33.753 9.54578 34.2135V37.2716C9.54578 37.7321 9.92004 38.1077 10.3791 38.1077H13.4274C13.8864 38.1077 14.2608 37.7321 14.2608 37.2716V34.2135C14.2608 33.753 13.8864 33.3774 13.4274 33.3774Z" fill="#FE646F"/>
<path d="M13.4274 21.2416V24.2998C13.4274 24.7603 13.0531 25.1359 12.5941 25.1359H9.54578V25.136C9.54578 25.5964 9.92004 25.9719 10.3791 25.9719H13.4274C13.8864 25.9719 14.2608 25.5964 14.2608 25.136V22.0776C14.2608 21.6172 13.8864 21.2416 13.4274 21.2416Z" fill="#FD4755"/>
<path d="M19.4759 21.2416H19.4758V24.2998C19.4758 24.7603 19.1015 25.1359 18.6425 25.1359H15.5941V25.136C15.5941 25.5964 15.9684 25.9719 16.4274 25.9719H19.4759C19.9348 25.9719 20.3092 25.5964 20.3092 25.136V22.0776C20.3092 21.6172 19.9348 21.2416 19.4759 21.2416Z" fill="#60B7FF"/>
<path d="M25.5242 21.2416H25.5241V24.2998C25.5241 24.7603 25.1498 25.1359 24.6909 25.1359H21.6425V25.136C21.6425 25.5964 22.0168 25.9719 22.4757 25.9719H25.5242C25.9831 25.9719 26.3576 25.5964 26.3576 25.136V22.0776C26.3576 21.6172 25.9831 21.2416 25.5242 21.2416Z" fill="#60B7FF"/>
<path d="M31.5727 21.2416V24.2998C31.5727 24.7603 31.1983 25.1359 30.7393 25.1359H27.6909V25.136C27.6909 25.5964 28.0653 25.9719 28.5242 25.9719H31.5727C32.0316 25.9719 32.406 25.5964 32.406 25.136V22.0776C32.406 21.6172 32.0316 21.2416 31.5727 21.2416Z" fill="#60B7FF"/>
<path d="M37.621 21.2416L37.6209 24.2998C37.6209 24.7603 37.2466 25.1359 36.7877 25.1359H33.7393V25.136C33.7393 25.5964 34.1136 25.9719 34.5725 25.9719H37.621C38.08 25.9719 38.4543 25.5964 38.4543 25.136V22.0776C38.4543 21.6172 38.08 21.2416 37.621 21.2416Z" fill="#60B7FF"/>
<path d="M13.4274 27.3095V30.3678C13.4274 30.8282 13.0531 31.2037 12.5941 31.2037H9.54578C9.54578 31.6641 9.92004 32.0397 10.3791 32.0397H13.4274C13.8864 32.0397 14.2608 31.6642 14.2608 31.2038V28.1455C14.2608 27.6851 13.8864 27.3095 13.4274 27.3095Z" fill="#FD4755"/>
<path d="M19.4759 27.3095H19.4758V30.3678C19.4758 30.8282 19.1015 31.2037 18.6425 31.2037H15.5941C15.5941 31.6641 15.9684 32.0397 16.4274 32.0397H19.4759C19.9348 32.0397 20.3092 31.6642 20.3092 31.2038V28.1455C20.3092 27.6851 19.9348 27.3095 19.4759 27.3095Z" fill="#60B7FF"/>
<path d="M25.5242 27.3095H25.5241V30.3678C25.5241 30.8282 25.1498 31.2037 24.6909 31.2037H21.6425C21.6425 31.6641 22.0168 32.0397 22.4757 32.0397H25.5242C25.9831 32.0397 26.3576 31.6642 26.3576 31.2038V28.1455C26.3576 27.6851 25.9831 27.3095 25.5242 27.3095Z" fill="#60B7FF"/>
<path d="M31.5727 27.3095V30.3678C31.5727 30.8282 31.1983 31.2037 30.7393 31.2037H27.6909C27.6909 31.6641 28.0653 32.0397 28.5242 32.0397H31.5727C32.0316 32.0397 32.406 31.6642 32.406 31.2038V28.1455C32.406 27.6851 32.0316 27.3095 31.5727 27.3095Z" fill="#60B7FF"/>
<path d="M37.621 27.3095L37.6209 30.3678C37.6209 30.8282 37.2466 31.2037 36.7877 31.2037H33.7393C33.7393 31.6641 34.1136 32.0397 34.5725 32.0397H37.621C38.08 32.0397 38.4543 31.6642 38.4543 31.2038V28.1455C38.4543 27.6851 38.08 27.3095 37.621 27.3095Z" fill="#60B7FF"/>
<path d="M13.4274 33.3774V36.4357C13.4274 36.8962 13.0531 37.2716 12.5941 37.2716H9.54578C9.54578 37.7321 9.92004 38.1077 10.3791 38.1077H13.4274C13.8864 38.1077 14.2608 37.7321 14.2608 37.2716V34.2135C14.2608 33.753 13.8864 33.3774 13.4274 33.3774Z" fill="#FD4755"/>
<path d="M19.4759 33.3774H19.4758V36.4357C19.4758 36.8962 19.1015 37.2716 18.6425 37.2716H15.5941C15.5941 37.7321 15.9684 38.1077 16.4274 38.1077H19.4759C19.9348 38.1077 20.3092 37.7321 20.3092 37.2716V34.2135C20.3092 33.753 19.9348 33.3774 19.4759 33.3774Z" fill="#60B7FF"/>
<path d="M25.5242 33.3774H25.5241V36.4357C25.5241 36.8962 25.1498 37.2716 24.6909 37.2716H21.6425C21.6425 37.7321 22.0168 38.1077 22.4757 38.1077H25.5242C25.9831 38.1077 26.3576 37.7321 26.3576 37.2716V34.2135C26.3576 33.753 25.9831 33.3774 25.5242 33.3774Z" fill="#60B7FF"/>
<path d="M31.5727 33.3774V36.4357C31.5727 36.8962 31.1983 37.2716 30.7393 37.2716H27.6909C27.6909 37.7321 28.0653 38.1077 28.5242 38.1077H31.5727C32.0316 38.1077 32.406 37.7321 32.406 37.2716V34.2135C32.406 33.753 32.0316 33.3774 31.5727 33.3774Z" fill="#60B7FF"/>
<path fill-rule="evenodd" clip-rule="evenodd" d="M9.75016 6H11.3493C11.7935 6 12.1558 6.36338 12.1558 6.80893V11.7166C12.1558 12.1622 11.7935 12.5255 11.3493 12.5255H9.75016C9.30604 12.5255 8.94373 12.1622 8.94373 11.7166V6.80893C8.94373 6.36338 9.30604 6 9.75016 6ZM36.6506 6H38.2497C38.6939 6 39.0563 6.36338 39.0563 6.80893V11.7166C39.0563 12.1622 38.6939 12.5255 38.2497 12.5255H36.6506C36.2064 12.5255 35.8442 12.1622 35.8442 11.7166V6.80893C35.8442 6.36338 36.2064 6 36.6506 6ZM27.6839 6H29.283C29.7271 6 30.0894 6.36338 30.0894 6.80893V11.7166C30.0894 12.1622 29.7271 12.5255 29.283 12.5255H27.6839C27.2397 12.5255 26.8773 12.1622 26.8773 11.7166V6.80893C26.8773 6.36338 27.2397 6 27.6839 6ZM18.717 6H20.3161C20.7602 6 21.1225 6.36338 21.1225 6.80893V11.7166C21.1225 12.1622 20.7602 12.5255 20.3161 12.5255H18.717C18.2728 12.5255 17.9105 12.1622 17.9105 11.7166V6.80893C17.9105 6.36338 18.2728 6 18.717 6Z" fill="#837683"/>
<path fill-rule="evenodd" clip-rule="evenodd" d="M11.4933 6.01294C11.8692 6.08127 12.1558 6.41259 12.1558 6.80886V11.7165C12.1558 12.1621 11.7935 12.5255 11.3494 12.5255H9.75021C9.34531 12.5255 9.00842 12.2234 8.95215 11.8323C8.99892 11.8408 9.04692 11.8453 9.09614 11.8453H10.6952C11.1394 11.8453 11.5017 11.4819 11.5017 11.0363V6.12871C11.5017 6.08937 11.4987 6.05074 11.4933 6.01294ZM38.3938 6.01294C38.7697 6.08127 39.0563 6.41259 39.0563 6.80886V11.7165C39.0563 12.1621 38.694 12.5255 38.2498 12.5255H36.6507C36.2458 12.5255 35.9089 12.2234 35.8526 11.8323C35.8993 11.8408 35.9474 11.8453 35.9966 11.8453H37.5957C38.0398 11.8453 38.4021 11.4819 38.4021 11.0363V6.12871C38.4021 6.08937 38.3993 6.05074 38.3938 6.01294ZM29.427 6.01294C29.8029 6.08127 30.0894 6.41259 30.0894 6.80886V11.7165C30.0894 12.1621 29.7271 12.5255 29.283 12.5255H27.6839C27.2789 12.5255 26.942 12.2234 26.8858 11.8323C26.9324 11.8408 26.9806 11.8453 27.0298 11.8453H28.6289C29.0731 11.8453 29.4354 11.4819 29.4354 11.0363V6.12871C29.4354 6.08937 29.4324 6.05074 29.427 6.01294ZM20.4601 6.01294C20.836 6.08127 21.1226 6.41259 21.1226 6.80886V11.7165C21.1226 12.1621 20.7603 12.5255 20.3162 12.5255H18.7171C18.3121 12.5255 17.9753 12.2234 17.9189 11.8323C17.9657 11.8408 18.0138 11.8453 18.063 11.8453H19.662C20.1062 11.8453 20.4685 11.4819 20.4685 11.0363V6.12871C20.4685 6.08937 20.4656 6.05074 20.4601 6.01294Z" fill="#685E68"/>
</svg>
