<svg width="48" height="48" viewBox="0 0 48 48" fill="none" xmlns="http://www.w3.org/2000/svg">
<path fill-rule="evenodd" clip-rule="evenodd" d="M26.9338 38.785V39.4815C26.9338 40.3149 26.2744 41 25.4585 41H22.575C21.7592 41 21.0886 40.3149 21.0886 39.4815V38.785H4.83819C4.36879 38.785 4 38.4083 4 37.9401V10.2424C4 9.77431 4.36879 9.39758 4.83819 9.39758H43.1618C43.6201 9.39758 44 9.77431 44 10.2424V37.9401C44 38.4083 43.6201 38.785 43.1618 38.785H26.9338Z" fill="#837683"/>
<path fill-rule="evenodd" clip-rule="evenodd" d="M6.59277 9.39758H41.4071V34.595C41.4071 35.7138 40.5242 36.6272 39.4288 36.6387C34.8466 36.6843 29.0348 37.1638 24.9444 39.4015C24.3407 39.7327 23.6479 39.7327 23.0555 39.4015C18.9538 37.1638 13.1532 36.6843 8.57102 36.6387C7.47578 36.6272 6.59277 35.7138 6.59277 34.595V9.39758Z" fill="#A79BA7"/>
<path fill-rule="evenodd" clip-rule="evenodd" d="M8.59344 7C16.1598 7.05701 18.2944 7.83342 23.9944 9.39759C29.7055 7.83342 31.8402 7.05701 39.3954 7C39.6301 7 39.8313 7.07984 39.9877 7.25111C40.1553 7.42239 40.2447 7.61649 40.2447 7.85625V34.595C40.2447 35.0632 39.8759 35.4399 39.4178 35.4399C33.8743 35.5084 28.342 36.1933 24.3967 38.3512C24.1397 38.4883 23.8603 38.4883 23.6032 38.3512C19.658 36.1933 14.1257 35.5084 8.58221 35.4399C8.12404 35.4399 7.75525 35.0632 7.75525 34.595V7.85625C7.75525 7.61649 7.84464 7.42239 8.00107 7.25111C8.16873 7.07984 8.36985 7 8.59344 7Z" fill="#D1D1D6"/>
<path fill-rule="evenodd" clip-rule="evenodd" d="M40.2447 32.8939V34.5951C40.2447 35.0632 39.8759 35.44 39.4178 35.44C33.8743 35.5084 28.342 36.1934 24.3967 38.3512C24.1397 38.4883 23.8603 38.4883 23.6032 38.3512C19.658 36.1934 14.1257 35.5084 8.58221 35.44C8.12404 35.44 7.75525 35.0632 7.75525 34.5951V32.8939C7.75525 33.3506 8.12404 33.7388 8.58221 33.7388C14.1257 33.7958 19.658 34.4923 23.6032 36.6501C23.8603 36.7872 24.1397 36.7872 24.3967 36.6501C28.342 34.4923 33.8743 33.7958 39.4178 33.7388C39.8759 33.7388 40.2447 33.3506 40.2447 32.8939Z" fill="#B1B1B5"/>
<path fill-rule="evenodd" clip-rule="evenodd" d="M23.9944 9.39759C29.7055 7.83342 31.8402 7.05701 39.3954 7C39.6301 7 39.8313 7.07984 39.9877 7.25111C40.1554 7.42239 40.2447 7.61649 40.2447 7.85625V34.595C40.2447 35.0632 39.876 35.4399 39.4178 35.4399C33.8743 35.5084 28.342 36.1933 24.3968 38.3512C24.2627 38.4197 24.1286 38.454 23.9944 38.454V9.39759Z" fill="#ECEFF1"/>
<path fill-rule="evenodd" clip-rule="evenodd" d="M40.2447 32.8939V34.5951C40.2447 35.0632 39.876 35.44 39.4178 35.44C33.8743 35.5084 28.342 36.1934 24.3968 38.3512C24.2627 38.4197 24.1286 38.454 23.9944 38.454V36.7529C24.1286 36.7529 24.2627 36.7186 24.3968 36.6501C28.342 34.4923 33.8743 33.7958 39.4178 33.7388C39.876 33.7388 40.2447 33.3506 40.2447 32.8939Z" fill="#D1D1D6"/>
<path d="M21.6809 31.8776C22.0833 32.0147 22.2844 32.46 22.1503 32.8595C22.005 33.2592 21.5803 33.4761 21.1779 33.3277C19.5239 32.7225 17.7916 32.3115 15.981 32.0261C14.148 31.7407 12.2481 31.5922 10.3034 31.5237C9.87868 31.5009 9.55459 31.147 9.56571 30.7246C9.58817 30.3021 9.93461 29.9597 10.3481 29.9825C12.3822 30.051 14.3381 30.1995 16.2044 30.4962C18.1044 30.7931 19.9262 31.2383 21.6809 31.8776Z" fill="#A79BA7"/>
<path d="M21.6809 27.1055C22.072 27.2425 22.2844 27.6763 22.1503 28.0759C22.0162 28.4869 21.5915 28.7038 21.1892 28.5669C19.4121 27.9503 17.6686 27.5393 15.8804 27.2653C14.081 26.9799 12.2481 26.8429 10.3034 26.7858C9.87868 26.7629 9.55459 26.409 9.56571 25.9865C9.58817 25.5641 9.93461 25.2331 10.3481 25.2444C12.371 25.3129 14.2598 25.45 16.1151 25.7354C17.9703 26.0208 19.8033 26.4547 21.6809 27.1055Z" fill="#A79BA7"/>
<path d="M21.6585 22.3217C22.0609 22.4473 22.2844 22.8811 22.1503 23.2807C22.0273 23.6917 21.6026 23.9201 21.2003 23.7831C19.2892 23.1552 17.5345 22.7555 15.7798 22.4929C14.0027 22.2304 12.2369 22.1047 10.3034 22.0477C9.88991 22.0363 9.55458 21.6824 9.5657 21.2485C9.57693 20.8261 9.92337 20.495 10.3481 20.5064C12.3487 20.5635 14.1704 20.689 15.9921 20.9631C17.825 21.2371 19.658 21.6595 21.6585 22.3217Z" fill="#A79BA7"/>
<path d="M21.6473 17.5264C22.0497 17.6407 22.2733 18.0746 22.1614 18.4855C22.0386 18.8965 21.6139 19.1249 21.2115 18.9993C19.1327 18.36 17.3668 17.9603 15.6456 17.7206C13.9133 17.4694 12.2146 17.3666 10.3034 17.3095C9.88991 17.2982 9.55458 16.9443 9.5657 16.5218C9.57693 16.0879 9.92337 15.7568 10.3481 15.7683C12.3151 15.8253 14.0698 15.9281 15.858 16.1907C17.6686 16.4533 19.5126 16.8529 21.6473 17.5264Z" fill="#A79BA7"/>
<path d="M21.6362 12.7199C22.0385 12.8341 22.2732 13.2679 22.1614 13.679C22.0497 14.09 21.6249 14.3183 21.2226 14.2041C18.9874 13.5533 17.1992 13.1766 15.5115 12.9368C13.8016 12.7086 12.1921 12.6286 10.3034 12.5715C9.88988 12.5601 9.56567 12.2061 9.56567 11.7837C9.57691 11.3613 9.92334 11.0188 10.3369 11.0302C12.2816 11.0873 13.9469 11.1672 15.7127 11.407C17.4786 11.6581 19.3338 12.0463 21.6362 12.7199Z" fill="#A79BA7"/>
<path d="M26.8109 33.3277C26.4197 33.4761 25.995 33.2592 25.8497 32.8595C25.7156 32.46 25.9167 32.0147 26.308 31.8776C28.0626 31.2383 29.8956 30.7931 31.7956 30.4962C33.662 30.1995 35.6179 30.051 37.6519 29.9825C38.0654 29.9597 38.412 30.3021 38.4231 30.7246C38.4454 31.147 38.1101 31.5009 37.6966 31.5237C35.7407 31.5922 33.852 31.7407 32.019 32.0261C30.2084 32.3115 28.4761 32.7225 26.8109 33.3277Z" fill="#A79BA7"/>
<path d="M26.8108 28.5669C26.4085 28.7038 25.9838 28.4869 25.8497 28.0759C25.7156 27.6763 25.928 27.2425 26.3191 27.1055C28.1967 26.4547 30.0184 26.0208 31.8849 25.7354C33.729 25.45 35.629 25.3129 37.6519 25.2444C38.0654 25.2331 38.4119 25.5641 38.4231 25.9865C38.4454 26.409 38.1101 26.7629 37.6966 26.7858C35.7519 26.8429 33.919 26.9799 32.1084 27.2653C30.3203 27.5393 28.5767 27.9503 26.8108 28.5669Z" fill="#A79BA7"/>
<path d="M26.7997 23.7831C26.3973 23.9201 25.9726 23.6917 25.8496 23.2807C25.7155 22.8811 25.939 22.4473 26.3303 22.3217C28.342 21.6595 30.1749 21.2371 32.0078 20.9631C33.8295 20.689 35.6512 20.5635 37.6518 20.5064C38.0653 20.495 38.4119 20.8261 38.423 21.2485C38.4342 21.6824 38.11 22.0363 37.6965 22.0477C35.763 22.1047 33.9972 22.2304 32.2202 22.4929C30.4654 22.7555 28.7107 23.1552 26.7997 23.7831Z" fill="#A79BA7" stroke="#A79BA7" stroke-width="0.0910777" stroke-miterlimit="2"/>
<path d="M26.7774 18.9993C26.3861 19.1249 25.9614 18.8965 25.8385 18.4855C25.7156 18.0746 25.9391 17.6407 26.3414 17.5264C28.4873 16.8529 30.3314 16.4533 32.142 16.1907C33.9302 15.9281 35.6736 15.8253 37.6519 15.7683C38.0654 15.7568 38.4119 16.0879 38.423 16.5218C38.4343 16.9443 38.1101 17.2982 37.6966 17.3095C35.7855 17.3666 34.0866 17.4694 32.3431 17.7206C30.6331 17.9603 28.8561 18.36 26.7774 18.9993Z" fill="#A79BA7"/>
<path d="M26.7661 14.2041C26.3638 14.3183 25.9503 14.09 25.8386 13.679C25.7267 13.2679 25.9503 12.8341 26.3527 12.7199C28.655 12.0463 30.5102 11.6581 32.2873 11.407C34.042 11.1672 35.7183 11.0873 37.6519 11.0302C38.0766 11.0188 38.4119 11.3613 38.423 11.7837C38.4343 12.2061 38.1101 12.5601 37.6855 12.5715C35.8078 12.6286 34.1873 12.7086 32.4884 12.9368C30.8008 13.1766 29.0126 13.5533 26.7661 14.2041Z" fill="#A79BA7"/>
</svg>
